<?xml version="1.0" encoding="UTF-8" standalone="no"?>
<!-- Created with Inkscape (http://www.inkscape.org/) -->

<svg
   xmlns:dc="http://purl.org/dc/elements/1.1/"
   xmlns:cc="http://creativecommons.org/ns#"
   xmlns:rdf="http://www.w3.org/1999/02/22-rdf-syntax-ns#"
   xmlns:svg="http://www.w3.org/2000/svg"
   xmlns="http://www.w3.org/2000/svg"
   xmlns:xlink="http://www.w3.org/1999/xlink"
   xmlns:sodipodi="http://sodipodi.sourceforge.net/DTD/sodipodi-0.dtd"
   xmlns:inkscape="http://www.inkscape.org/namespaces/inkscape"
   width="1440"
   height="900"
   viewBox="0 0 381.00001 238.12501"
   version="1.1"
   id="svg8"
   inkscape:version="0.92.4 (5da689c313, 2019-01-14)"
   sodipodi:docname="Bubbles.svg">
  <defs
     id="defs2">
    <linearGradient
       inkscape:collect="always"
       id="linearGradient903">
      <stop
         style="stop-color:#0ef655;stop-opacity:1"
         offset="0"
         id="stop899" />
      <stop
         id="stop907"
         offset="0.50411254"
         style="stop-color:#4dfed0;stop-opacity:0.99607843" />
      <stop
         style="stop-color:#4dfed0;stop-opacity:0.99494952"
         offset="1"
         id="stop901" />
    </linearGradient>
    <linearGradient
       inkscape:collect="always"
       xlink:href="#linearGradient903"
       id="linearGradient905"
       x1="0"
       y1="58.873985"
       x2="381"
       y2="296.99899"
       gradientUnits="userSpaceOnUse" />
  </defs>
  <sodipodi:namedview
     id="base"
     pagecolor="#ffffff"
     bordercolor="#666666"
     borderopacity="1.0"
     inkscape:pageopacity="0.0"
     inkscape:pageshadow="2"
     inkscape:zoom="0.49497475"
     inkscape:cx="768.4383"
     inkscape:cy="413.67179"
     inkscape:document-units="mm"
     inkscape:current-layer="layer1"
     showgrid="false"
     units="px"
     inkscape:window-width="1366"
     inkscape:window-height="706"
     inkscape:window-x="-8"
     inkscape:window-y="-8"
     inkscape:window-maximized="1"
     showguides="false" />
  <metadata
     id="metadata5">
    <rdf:RDF>
      <cc:Work
         rdf:about="">
        <dc:format>image/svg+xml</dc:format>
        <dc:type
           rdf:resource="http://purl.org/dc/dcmitype/StillImage" />
        <dc:title></dc:title>
      </cc:Work>
    </rdf:RDF>
  </metadata>
  <g
     inkscape:label="Layer 1"
     inkscape:groupmode="layer"
     id="layer1"
     transform="translate(0,-58.873987)">
    <rect
       style="opacity:1;fill:url(#linearGradient905);fill-opacity:1;stroke:none;stroke-width:0.24960412;stroke-linecap:round;stroke-linejoin:round;stroke-miterlimit:10;stroke-dasharray:none;stroke-opacity:1"
       id="rect819"
       height="238.125"
       x="0"
       y="58.873985"
       width="381" />
    <path
       style="opacity:1;fill:#ffffff;fill-opacity:0.50196078;stroke:none;stroke-width:0.08599268;stroke-linecap:round;stroke-linejoin:round;stroke-miterlimit:10;stroke-dasharray:none;stroke-opacity:1"
       d="m 68.418007,177.07661 a 9.8809675,9.8809675 0 0 0 -9.88097,9.88098 9.8809675,9.8809675 0 0 0 9.88097,9.88097 9.8809675,9.8809675 0 0 0 9.88098,-9.88097 9.8809675,9.8809675 0 0 0 -9.88098,-9.88098 z m 0,3.95235 a 5.9285807,5.9285807 0 0 1 5.92863,5.92863 5.9285807,5.9285807 0 0 1 -5.92863,5.92862 5.9285807,5.9285807 0 0 1 -5.92862,-5.92862 5.9285807,5.9285807 0 0 1 5.92862,-5.92863 z"
       id="path911"
       inkscape:connector-curvature="0" />
    <path
       style="opacity:1;fill:#ffffff;fill-opacity:0.50196078;stroke:none;stroke-width:0.11390476;stroke-linecap:round;stroke-linejoin:round;stroke-miterlimit:10;stroke-dasharray:none;stroke-opacity:1"
       d="m 44.948327,127.02356 a 13.088198,13.088198 0 0 0 -13.08821,13.08823 13.088198,13.088198 0 0 0 13.08821,13.0882 13.088198,13.088198 0 0 0 13.08821,-13.0882 13.088198,13.088198 0 0 0 -13.08821,-13.08823 z m 0,5.23523 a 7.8529191,7.8529191 0 0 1 7.85297,7.853 7.8529191,7.8529191 0 0 1 -7.85297,7.85297 7.8529191,7.8529191 0 0 1 -7.85298,-7.85297 7.8529191,7.8529191 0 0 1 7.85298,-7.853 z"
       id="path911-5"
       inkscape:connector-curvature="0" />
    <path
       style="opacity:1;fill:#ffffff;fill-opacity:0.50196078;stroke:none;stroke-width:0.04877656;stroke-linecap:round;stroke-linejoin:round;stroke-miterlimit:10;stroke-dasharray:none;stroke-opacity:1"
       d="m 87.711447,107.24563 a 5.6046584,5.6046584 0 0 0 -5.60466,5.60467 5.6046584,5.6046584 0 0 0 5.60466,5.60466 5.6046584,5.6046584 0 0 0 5.60466,-5.60466 5.6046584,5.6046584 0 0 0 -5.60466,-5.60467 z m 0,2.24184 a 3.3627952,3.3627952 0 0 1 3.36282,3.36283 3.3627952,3.3627952 0 0 1 -3.36282,3.36282 3.3627952,3.3627952 0 0 1 -3.36282,-3.36282 3.3627952,3.3627952 0 0 1 3.36282,-3.36283 z"
       id="path911-6"
       inkscape:connector-curvature="0" />
    <ellipse
       style="opacity:1;fill:#ffffff;fill-opacity:0.50196078;stroke:none;stroke-width:3.01898623;stroke-linecap:round;stroke-linejoin:round;stroke-miterlimit:10;stroke-dasharray:none;stroke-opacity:1"
       id="path959-8"
       cx="17.686842"
       cy="281.76462"
       rx="82.853561"
       ry="84.991714" />
    <ellipse
       style="opacity:1;fill:#ffffff;fill-opacity:0.50196078;stroke:none;stroke-width:3.15189743;stroke-linecap:round;stroke-linejoin:round;stroke-miterlimit:10;stroke-dasharray:none;stroke-opacity:1"
       id="path959-8-4"
       cx="371.01715"
       cy="91.468719"
       rx="86.501205"
       ry="88.73349" />
    <path
       style="opacity:1;fill:#ffffff;fill-opacity:0.50196078;stroke:none;stroke-width:0.11390476;stroke-linecap:round;stroke-linejoin:round;stroke-miterlimit:10;stroke-dasharray:none;stroke-opacity:1"
       d="m 286.55997,262.26197 a 13.088198,13.088198 0 0 0 -13.0882,13.08821 13.088198,13.088198 0 0 0 13.0882,13.0882 13.088198,13.088198 0 0 0 13.08822,-13.0882 13.088198,13.088198 0 0 0 -13.08822,-13.08821 z m 0,5.23522 a 7.8529191,7.8529191 0 0 1 7.85296,7.85299 7.8529191,7.8529191 0 0 1 -7.85296,7.85297 7.8529191,7.8529191 0 0 1 -7.85297,-7.85297 7.8529191,7.8529191 0 0 1 7.85297,-7.85299 z"
       id="path911-5-1"
       inkscape:connector-curvature="0" />
    <path
       style="opacity:1;fill:#ffffff;fill-opacity:0.50196078;stroke:none;stroke-width:0.08599268;stroke-linecap:round;stroke-linejoin:round;stroke-miterlimit:10;stroke-dasharray:none;stroke-opacity:1"
       d="m 323.44317,220.03338 a 9.8809675,9.8809675 0 0 0 -9.88097,9.88098 9.8809675,9.8809675 0 0 0 9.88097,9.88097 9.8809675,9.8809675 0 0 0 9.881,-9.88097 9.8809675,9.8809675 0 0 0 -9.881,-9.88098 z m 0,3.95235 a 5.9285807,5.9285807 0 0 1 5.92863,5.92863 5.9285807,5.9285807 0 0 1 -5.92863,5.92862 5.9285807,5.9285807 0 0 1 -5.92862,-5.92862 5.9285807,5.9285807 0 0 1 5.92862,-5.92863 z"
       id="path911-4"
       inkscape:connector-curvature="0" />
  </g>
</svg>
